<svg width="220" height="220" viewBox="0 0 220 220" 
     xmlns="http://www.w3.org/2000/svg" 
     role="img" aria-label="config-smithr fantasy logo" >
  <!-- Background gradient circle -->
  <defs>
    <radialGradient id="glow" cx="50%" cy="50%" r="50%">
      <stop offset="0%" stop-color="#f0e6d2" />
      <stop offset="100%" stop-color="#6b4c3b" />
    </radialGradient>
    <filter id="glow-filter" x="-50%" y="-50%" width="200%" height="200%" >
      <feDropShadow dx="0" dy="0" stdDeviation="4" flood-color="#f4a261" flood-opacity="0.8"/>
    </filter>
  </defs>

  <circle cx="110" cy="110" r="100" fill="url(#glow)" />
  
  <!-- Rune-style gear -->
  <g transform="translate(110, 110)" filter="url(#glow-filter)">
    <circle r="70" fill="#7c4a2a" stroke="#d9b382" stroke-width="8"/>
    <!-- Gear teeth as runes -->
    <g stroke="#d9b382" stroke-width="6" stroke-linecap="round" >
      <line y1="-70" y2="-90"/>
      <line y1="70" y2="90"/>
      <line x1="70" x2="90"/>
      <line x1="-70" x2="-90"/>
      <line x1="50" y1="-50" x2="65" y2="-65"/>
      <line x1="50" y1="50" x2="65" y2="65"/>
      <line x1="-50" y1="-50" x2="-65" y2="-65"/>
      <line x1="-50" y1="50" x2="-65" y2="65"/>
    </g>
    <circle r="45" fill="#c9a66b" stroke="#6b4c3b" stroke-width="5"/>
</g>
    <!---->
    <!-- Magical hammer -->
    <!-- <rect x="-18" y="15" width="12" height="50" fill="#4a3a2a" rx="4" ry="4" /> -->
    <!-- <rect x="-40" y="5" width="45" height="20" fill="#6b4c3b" rx="5" ry="5" transform="rotate(-40 -15 15)" /> -->
    <!--  -->
    <!--  Magical sparkles -->
    <!-- <circle cx="30" cy="-30" r="4" fill="#f4a261" opacity="0.9" /> -->
    <!-- <circle cx="40" cy="-10" r="3" fill="#f4a261" opacity="0.7" /> -->
    <!-- <circle cx="20" cy="-15" r="2" fill="#f4a261" opacity="0.8" /> -->
    
</svg>
